<svg xmlns="http://www.w3.org/2000/svg" viewBox="0 0 180.56 162.8"><defs><style>.a{fill:#00fefc;}.b{fill:none;stroke:#00fefc;stroke-miterlimit:10;stroke-width:4px;}</style></defs><path class="a" d="M158.8,35c-2.19-1.33-4.33-2.75-6.58-4-4.13-2.25-8.53-4.1-12.45-6.69-3.28-2.16-6-5.14-9-7.8-.11-.09.25-1,.31-1,3,.52,6.49.38,9,1.84,4.59,2.68,8.72,6.21,12.87,9.6,2.55,2.07,4.8,4.54,6.89,6.55A60.82,60.82,0,0,1,156,26.42c-.77-2-.77-4.31-1.11-6.48,1-.08,2.25-.61,2.84-.18,6.46,4.7,6.84,11.24,6,18.55-.24,2.2,2.32,4.75,3.74,7.06,1.16,1.91,2.52,3.69,3.82,5.52a5.07,5.07,0,0,0,.69.7,4.17,4.17,0,0,0,.26-1.21c-.34-3.84-.8-7.67-1-11.51-.05-.75.76-1.54,1.17-2.31a17.07,17.07,0,0,1,2.26,1.76c3,3.24,3.11,7.27,2.63,11.28-.21,1.8-1.41,3.47-1.81,5.28A17,17,0,0,0,175,61c.7,4.1,1.91,8.11,2.93,12.16a5,5,0,0,0,.33.83,6.35,6.35,0,0,1,.16-.87q2.24-7.26,4.48-14.52c.93.38,2.64.73,2.66,1.15.19,4.14.73,8.45-.15,12.41-.53,2.35-3.49,4.13-5.25,6.25A4.93,4.93,0,0,0,178.89,81c-.16,4.86-.15,9.73-.18,14.6a1.68,1.68,0,0,0,.24.6c.13-.18.29-.36.41-.55,3-4.64,6-9.29,9-13.92.08-.13.8-.08.86,0,1.71,3.77-.74,13.45-4.17,15.82-1.81,1.24-3.93,2-5.85,3.11-.64.36-1.49,1-1.6,1.56-.57,2.95-.87,6-1.39,8.93a33.31,33.31,0,0,1-1.16,3.81,4.3,4.3,0,0,0-.07.73,4.89,4.89,0,0,0,.58-.39c3-2.69,5.89-5.42,8.91-8a32.11,32.11,0,0,1,3.63-2.4c-.48,2.78-.35,5.88-1.58,8.28-2.81,5.51-7,9.16-14,8.6-1-.08-2.36,3-3.51,4.57q-3.59,5-7.11,10.12c-.18.25-.11.68-.16,1a9.37,9.37,0,0,0,.85-.4c3.91-2.31,7.82-4.64,11.75-6.94a2.85,2.85,0,0,1,1-.27l4.41-.57c-.52,1.72-.61,3.76-1.62,5.12C174,140,168.62,143,161.5,141.62c-4.85-.93-6.45,3.48-9.48,5.55-1.45,1-2.8,2.11-4.16,3.21-.17.14-.17.56-.13.83,0,.08.46.18.68.13,3.29-.7,6.55-1.55,9.87-2.1a47.29,47.29,0,0,1,6.42-.38,10,10,0,0,1,1.87.27c-.14.83,0,1.9-.47,2.45-4.56,5.41-10.51,7.22-17.36,6.21-2-.29-4-1.68-5.8-1.4a43.55,43.55,0,0,0-9,2.92,45.35,45.35,0,0,0-5.24,2.78c-.21.11-.31.41-.46.62.17.09.42.29.49.24,4.67-3.28,9.27-.26,13.9.13,1.53.13,3.08,0,4.59.18a10.14,10.14,0,0,1,2.49,1.06c-.56.88-.93,2.05-1.73,2.59-4.3,2.93-9.14,3.26-14.25,3.31-4,0-6.75-2-10.06-3.4-3-1.28-6.73-.65-10.15-.88-1.92-.13-3.83-.32-5.75-.43a2.85,2.85,0,0,0-1,.34c.22.33.37.83.67,1,4.54,1.92,9.08,3.85,13.67,5.66,1.73.68,3.6,1,5.35,1.62a2.24,2.24,0,0,1,1.09,1.49c.07.28-.65,1-1.06,1.07-5.39.46-10.86,1.47-16.16.93-2.8-.28-6.29-2.74-7.76-5.23-3.09-5.22-4.7-1.81-6.64.44-4.23,4.93-14.86,7.12-20.87,4.23-.56-.27-1.34-.09-1.88-.38S72,175.78,72,175.27a2,2,0,0,1,.93-1.58,84.17,84.17,0,0,1,10.94-4.5c3.44-1,7.13-1.07,10.71-1.59.34,0,.84-.32.89-.57s-.29-.94-.46-.94c-6.15-.08-13.23-2.05-18.21.35a31.67,31.67,0,0,1-18.34,2.95c-2.93-.35-5.63-2.63-8.39-4.12a1.51,1.51,0,0,1-.27-1.41,1.86,1.86,0,0,1,1.28-.69c4.39-.61,8.79-1.63,13.17-1.58,2.87,0,5.72,1.61,8.59,2.49a4.9,4.9,0,0,0,1,.09c-.21-.25-.37-.6-.65-.75-4.27-2.24-8.48-4.62-12.87-6.59-1.56-.7-3.59-.53-5.4-.49-4.18.1-8.61,1.3-12.48.28-3.52-.93-6.43-4.17-9.53-6.49-.05,0,.85-1.93,1.26-1.91,4,.15,8,.13,11.78,1,2.2.51,4,2.64,6,3.93a6.73,6.73,0,0,0,2.11.51,10.26,10.26,0,0,0-1.23-1.85,60.32,60.32,0,0,0-5.19-4.8c-4.61-3.55-8.87-7.34-15.72-6.09-4.89.9-12.54-6.87-12.94-12,0-.29.25-.87.35-.86a10.14,10.14,0,0,1,2.71.38c1.43.5,2.82,1.77,4.17,1.7,6.15-.31,7.84,5.13,11.29,8.3a6.94,6.94,0,0,0,.88.62,9.55,9.55,0,0,0-.49-1c-3.1-5-6.17-10-9.37-15a3.56,3.56,0,0,0-2.42-1.54,15,15,0,0,1-15-15.63c0-.36,1.11-1.06,1.27-1,3.11,2,6.5,3.82,9.11,6.38,2,2,3.1,5,4.63,7.56.13.21.53.26.8.38a4.94,4.94,0,0,0-.11-1c-1.65-5.25-3-10.65-5.16-15.68-.81-1.87-3.94-2.58-5.41-4.32a46.51,46.51,0,0,1-6.56-9.5c-.89-1.81-.21-4.41-.14-6.65a5.07,5.07,0,0,1,.6-1.57,5.09,5.09,0,0,1,1.59.89,61,61,0,0,1,5.45,7.12,63.39,63.39,0,0,1,3.38,7.93c.11.26.22.5.34.75.11-.25.33-.51.32-.75-.25-5.88-.14-11.8-1-17.58-.29-1.9-3.18-3.36-4.81-5.09-2.92-3.11-3.92-11.14-1.75-14.54.41-.65,1.51-1.47,2-1.31a3.65,3.65,0,0,1,1.77,2,25.38,25.38,0,0,1,2.1,5.76A74.34,74.34,0,0,1,20,73.71a2.64,2.64,0,0,0,.26.69c.14-.15.36-.29.41-.47,1.38-4.91,3-9.77,3.95-14.77.33-1.73-1.06-3.8-1.7-5.7-1.91-5.7-2-11.2,1.87-16.21a2.87,2.87,0,0,1,1.86-.65c.15,0,.53.87.57,1.37.33,4,.68,8.05.83,12.08,0,1-.6,2.1-.53,3.34,2.39-4.09,5.12-8,7-12.34a20.63,20.63,0,0,0,1.46-8.73c-.12-4.21.35-8,3.58-11a11.62,11.62,0,0,1,3-1.45,9.19,9.19,0,0,1,.54,2.66c-.41,4-1,8-1.47,11.94l-1.28-.13c2.55-2.79,5.29-5.44,7.6-8.42,4.55-5.88,9.63-10.67,17.72-10.41a6.64,6.64,0,0,1,1.68.48c-.26.66-.33,1.57-.81,1.95-5.16,4.13-9.66,9.31-17,10-1.16.11-2.12,2.05-3.22,3.09-1.73,1.62-3.51,3.19-5.24,3.6,4.17-.16,8.34-.35,12.52-.45a2.37,2.37,0,0,1,1.28.75c-.34.8-.65,2-1.28,2.22-3.17,1.08-6.44,2.63-9.68,2.63-3.94,0-6.92.47-8.83,4.28C33.83,47,32,49.62,30.37,52.39a2,2,0,0,0-.08.79c.15-.21.25-.49.45-.62,1.79-1.19,3.46-2.72,5.43-3.42,1.72-.62,3.79-.39,5.69-.32.4,0,1.23,1.25,1.09,1.5C40.4,55,36.78,57.7,31.09,57.76c-1.58,0-3.92,2.05-4.57,3.69-1.6,4-2.43,8.39-3.53,12.62a4.83,4.83,0,0,0,0,1.31,4,4,0,0,0,.7-1c1.13-4.12,6.83-8.94,11.08-9.29a1.65,1.65,0,0,1,1,.32c-.14,1.46,0,3.15-.64,4.33-2.4,4.11-5.24,7.79-10.6,8.39a3.49,3.49,0,0,0-2.15,2.58c-.07,5.12.17,10.24.33,15.36a3.36,3.36,0,0,0,.36,1,5.26,5.26,0,0,0,.23-.93c.42-5.48,3.49-9.43,7.58-12.68.31-.23,2.3.73,2.38,1.3.83,6-2.63,9.86-6.38,14-1.65,1.81-2.07,5.46-1.79,8.15.35,3.38,2,6.64,3.08,9.94a7.9,7.9,0,0,0,.68,1.24c0-.45.24-1,.07-1.36-3.12-6.34,1.38-10.65,4.12-15.41a1.87,1.87,0,0,1,1.63-.72A2,2,0,0,1,35.83,102c.28,6,1,12-3.39,17.3-1,1.25-.26,4.7.66,6.68,1.81,3.91,4.3,7.51,6.52,11.23a3,3,0,0,0,.64.58,5.55,5.55,0,0,0-.06-.82c-.77-3.35-2.09-6.68-2.19-10.05-.09-3.14,1-6.34,1.87-9.45.11-.39,2.43-.78,2.65-.45,1,1.5,2.34,3.29,2.28,4.92-.19,5.2-1.07,10.37-1.37,15.57A6.25,6.25,0,0,0,45,141.6c2.88,3.18,6,6.09,9.12,9.09a2.18,2.18,0,0,0,.73.31c0-.24,0-.59-.12-.73-5.65-5.42-3.07-12.44-3.59-18.84,0-.05,1.55-.54,1.92-.25,3.73,3,6,6.8,5.93,11.73,0,2.77-.55,5.63,0,8.26.31,1.42,2.25,2.82,3.78,3.56,3.39,1.63,7,2.84,10.49,4.2a7.48,7.48,0,0,0,1.18.25,4.46,4.46,0,0,0-.57-1c-2.72-2.73-6-5.09-8-8.26-1.32-2.1-.81-5.35-1.12-8.09,1.41.1,3.29-.35,4.16.39,5.12,4.35,9.14,9.37,9.22,16.69,0,1.2,1.88,3.18,3.15,3.42a114.89,114.89,0,0,0,12.33,1.22,6.68,6.68,0,0,0,1.78-.35c-.46-.24-.91-.53-1.4-.73-5.26-2.15-9.65-5.35-12.24-10.55a10.9,10.9,0,0,1-.51-3.39c1.7,0,4-.69,5,.15,4.13,3.35,7.85,7.2,11.77,10.82.5.46,1.55,1.06,1.87.86a10.27,10.27,0,0,0,2.74-2.6C106,153,110,149.2,116.1,148.62c.68-.07,2.15,1.37,2.11,1.44a122,122,0,0,1-6.88,10.86c-.64.86-2.63.69-4,1-.28.07-.51.36-.76.54.26.15.54.45.78.42,4.2-.47,8.41-.94,12.59-1.54.39,0,1-.93,1-1.4-.38-7.48,4-12.37,9.18-16.73.89-.76,2.7-.42,4.08-.59a40.58,40.58,0,0,1-.57,5.74c-.93,4-3,7.26-6.83,9.16a.87.87,0,0,0-.16.83c.16.25.67.54.85.45,4.07-2,8.44-3.66,12-6.37,1.28-1,.87-4.52.77-6.87-.21-4.95.88-9.39,4.5-12.88.82-.78,2.31-.86,3.49-1.27a14,14,0,0,1,.73,2.69c.31,5,.57,9.94-4,13.52-.16.13,0,.66,0,1,.36,0,.84.06,1.06-.13a110.85,110.85,0,0,0,8.67-7.79c.79-.83.68-2.84.47-4.23-1-6.24-2.2-12.47,1.06-18.41.42-.77,1.55-1.14,2.36-1.7a10.44,10.44,0,0,1,1.12,2.34c.74,3.59,1.51,7.19,1.93,10.82.14,1.18-.76,2.47-1.15,3.72a3,3,0,0,0,0,.9c.16,0,.42,0,.46,0,2.33-4.37,5.15-8.59,6.65-13.23.53-1.62-2.92-4.17-3.35-6.51-.76-4.08-.61-8.33-.73-12.51,0-.44.72-.9,1.11-1.35.61.59,1.48,1.08,1.8,1.8,1.86,4.15,3.59,8.35,5.37,12.53a2,2,0,0,0,.3.37c.1-.13.27-.24.29-.38.77-4.29,2-8.59,2.05-12.89,0-1.64-2.75-3.3-4.23-5a16.77,16.77,0,0,1-4.29-13c0-.31.55-.87.67-.82a9.21,9.21,0,0,1,2.65,1.24c3.76,3,6.53,6.63,6.48,11.79,0,.16.26.33.39.49.11-.21.3-.42.29-.63-.08-5.07.3-10.22-.54-15.16-.29-1.68-3.7-2.79-5.62-4.25-3.42-2.6-6.92-5.21-6.68-10.15,0-.25,1.81-.53,2.78-.56.52,0,1.06.45,1.58.71,3.28,1.68,6.7,3.22,7.38,7.48,0,.1.23.18.35.28.06-.25.21-.52.15-.73-.73-2.59-1.5-5.17-2.24-7.76-.48-1.64-.85-3.32-1.41-4.94-.65-1.89.17-4.94-4.14-3.16s-7.45-1.88-10.18-4.81c-.91-1-1.15-2.55-1.7-3.86,2,.15,4.13-.15,5.87.55,2.63,1.06,5,2.82,7.43,4.27.1.06.27,0,.4,0a1.82,1.82,0,0,0-.12-.75c-2.61-4-5.17-8.09-7.93-12A3.93,3.93,0,0,0,159,40c-4.93-.1-10.07,1-14.19-2.92a8.88,8.88,0,0,1-1.26-2c.59-.31,1.19-.88,1.79-.89,4.44-.08,8.89,0,13.34,0Z" transform="translate(-9.23 -15.52)"/><path class="a" d="M99.88,23.9c2.18.3,4.73.25,7.25.34a49.26,49.26,0,0,1,16.71,3.85A34.43,34.43,0,0,1,130,31.61a77.1,77.1,0,0,1,14.64,12.08,52.58,52.58,0,0,1,7.87,10.81,72.06,72.06,0,0,1,4.86,10.69c.86,2.66,1.45,5.38,2.23,8,.45,1.54.26,3.24.5,4.85a55,55,0,0,1,.29,11.32,62.31,62.31,0,0,1-2.84,14,52.55,52.55,0,0,1-4.17,9.9,62.25,62.25,0,0,1-6.57,9.79,54.26,54.26,0,0,1-8,8.24A58.6,58.6,0,0,1,129,138a81.7,81.7,0,0,1-7.6,3.54,51.62,51.62,0,0,1-5.43,1.82,70,70,0,0,1-8.39,1.79,74.28,74.28,0,0,1-9.68.3,37.59,37.59,0,0,1-6.28-.26,79.58,79.58,0,0,1-8.29-1.8,64.69,64.69,0,0,1-7.87-2.72,51.39,51.39,0,0,1-9-4.78,64.1,64.1,0,0,1-10.71-8.79A60,60,0,0,1,49,118.63,61.5,61.5,0,0,1,44.1,110a74.05,74.05,0,0,1-2.91-7.82c-.86-2.66-1.24-5.42-1.92-8.11a24,24,0,0,1-.57-5.55c0-5.06-.37-10.13.68-15.14a82.2,82.2,0,0,1,2.88-9.19c.72-2.12,1.61-4.15,2.53-6.19a56.14,56.14,0,0,1,5-8.38,52.71,52.71,0,0,1,7.47-8.72,51.41,51.41,0,0,1,6.4-5.43,65.13,65.13,0,0,1,10.67-6.22,60.5,60.5,0,0,1,14.59-4.5A86.66,86.66,0,0,1,99.88,23.9ZM47.66,86.3c-1.59,0-3.18,0-4.76,0-.68,0-.93.2-.86.87.29,2.87.33,5.74.9,8.61A51.38,51.38,0,0,0,46.84,108a77.17,77.17,0,0,0,4.75,8.25,60,60,0,0,0,10.13,12,50.44,50.44,0,0,0,6.57,4.92,58.43,58.43,0,0,0,16.77,7.43,38.71,38.71,0,0,0,10.19,1.59c4.74,0,9.51.32,14.19-.59a60.94,60.94,0,0,0,11.74-3.45,63.54,63.54,0,0,0,8.32-4.2A57.14,57.14,0,0,0,140,125.69a55.5,55.5,0,0,0,7.46-9A60.77,60.77,0,0,0,153,106.29a82.3,82.3,0,0,0,3.42-11.36c.66-2.53.51-5.17.58-7.77,0-.52,0-.87-.7-.86-3.2,0-6.41,0-9.61,0-.39,0-.71,0-.74.57a45.1,45.1,0,0,1-1.5,9.43,49.92,49.92,0,0,1-3.31,9A46.37,46.37,0,0,1,117,127.68a38.5,38.5,0,0,1-10.53,3c-6,.6-12,.79-18-1a55,55,0,0,1-10.88-4.19,46.57,46.57,0,0,1-11.09-8.34A45.82,45.82,0,0,1,56,100.53,43.59,43.59,0,0,1,53.28,87c0-.66-.36-.74-.86-.74ZM100.3,38.45a42.1,42.1,0,0,1,11.89,1.63,34.54,34.54,0,0,1,10.53,4.39A65.3,65.3,0,0,1,131.43,51c1.85,1.75,3.89,4.1,5.57,6,0,0,1.41,2,2.14,3.44a70.74,70.74,0,0,1,4.1,8.72,49.36,49.36,0,0,1,2.67,13.14c.05.6.2.76.79.75,3.12,0,6.24,0,9.35,0,.8,0,.94-.25.93-1a47.54,47.54,0,0,0-2-13.37,61.28,61.28,0,0,0-5.85-13.43,56,56,0,0,0-6.69-9.09,58.62,58.62,0,0,0-9.24-8.28,54,54,0,0,0-9.64-5.66,57.28,57.28,0,0,0-15.72-4.59,63.44,63.44,0,0,0-18.36.22A54.79,54.79,0,0,0,76.21,32a53.87,53.87,0,0,0-11.54,6.8,58,58,0,0,0-9.07,8.67A57.39,57.39,0,0,0,42.75,74.29,75.41,75.41,0,0,0,42,82.12c-.07.78.27.95,1,.95q4.68-.06,9.36,0c.73,0,.89-.25.9-.93A35.69,35.69,0,0,1,55,71.52a52.62,52.62,0,0,1,5-11,48.06,48.06,0,0,1,9.12-10.8,43,43,0,0,1,10.78-7A59,59,0,0,1,91,39C93.74,38.37,96.54,38.49,100.3,38.45ZM73.48,99.57c4.26,0,8.51,0,12.76,0,.59,0,.94-.14.6-.76-.92-1.68-1.82-3.37-2.84-5a157.18,157.18,0,0,1-8.06-15.1Q71.19,68.43,66.48,58.1c-.26-.58-.53-.41-.86,0a43.14,43.14,0,0,0-6.11,10.34,37.94,37.94,0,0,0-3,13.88c-.53,4.54.29,7.87.62,12.28a1.5,1.5,0,0,0,.24.71c.75,1.11,1.7,4.27,3.83,4.27Zm-1.67,3v.16c-3.43,0-6.86,0-10.29,0-.73,0-1.05.25-.75,1a14.79,14.79,0,0,0,.93,1.76,47.46,47.46,0,0,0,8.82,11.15A42.5,42.5,0,0,0,93.37,127.5c.76.12,1.45.1,1.87-.82q5-10.74,10.07-21.44c1.26-2.67,1.27-2.67-1.71-2.67ZM105,127.65c1.58-.58,3-.47,4.46-.89a55.13,55.13,0,0,0,7.62-2.59A42.76,42.76,0,0,0,133.76,111c.59-.78,2-1.59,1.21-2.75-1.75-2.51-3.76-4.83-5.66-7.24-3.07-3.91-6.13-7.83-9.22-11.72-.67-.84-1.41-2.17-2.25,0a22.06,22.06,0,0,1-2,3.59,125.32,125.32,0,0,0-6.79,12.06c-1.84,3.81-3.59,7.67-5.4,11.49-1.63,3.44-3.3,6.87-5,10.3-.33.69-.23,1,.65,1C101.29,127.62,103.21,127.65,105,127.65ZM138,67c.71,0,.62-.82.28-1.41-1.07-1.81-2-3.7-3.24-5.42a43.19,43.19,0,0,0-12.59-12,46,46,0,0,0-11.55-5.14c-2-.58-2.9,0-4.11,1.75-.79,1.2-.91,1.59-1.41,2.36-1.87,2.93-3.76,5.85-5.63,8.77-2,3.12-4,6.23-6,9.37a4.88,4.88,0,0,0-.41,1.24,6.26,6.26,0,0,0,1,.17c6.15.07,12.29.14,18.44.16,7.78,0,15.56,0,23.34,0M92.36,42.22A40.45,40.45,0,0,0,78.7,47a46.66,46.66,0,0,0-8.5,6.09c-.64.6-2.16,1.09-1.51,2.28,2.11,3.81,3.64,7.89,5.57,11.78,2.11,4.26,3.95,8.66,5.92,13a1.32,1.32,0,0,0,.51.51c.08,0,.33-.08.4-.18.4-.63.8-1.28,1.16-1.93,1.77-3.13,3.46-6.32,5.31-9.4s3.9-6.1,5.83-9.16q5.46-8.62,10.88-17.3a.89.89,0,0,0,.15-.68c-.09-.14-.44-.19-.67-.19M126.17,70h0c-4.45,0-8.9,0-13.35,0-.87,0-.66.39-.41.82,2.24,3.9,4.45,7.82,6.76,11.68s5.26,7,7.88,10.44c3,4,6.26,7.88,9.34,11.86.66.86,1,.7,1.39-.11a36.85,36.85,0,0,0,4.31-12.55c.85-7.22.81-14.46-1.63-21.47a.9.9,0,0,0-1-.66C135,70,130.59,70,126.17,70Zm-26.51-.21H91.92c-.44,0-1,0-1.22.42-.89,1.55-1.74,3.13-2.63,4.69-1.4,2.46-2.78,4.93-4.25,7.36-.64,1.08-1.66,2-.92,3.44.53,1,1.18,1.89,1.73,2.85,1.62,2.82,3.29,5.61,4.81,8.48.9,1.7,1.79,2.76,4.08,2.59a118.61,118.61,0,0,1,12.65-.15c1.44,0,2.2-.19,2.91-1.5,2-3.68,4.2-7.23,6.23-10.89.48-.85,1.54-1.68,1.1-2.74A38.82,38.82,0,0,0,114,80c-1.81-3.15-3.66-6.26-5.41-9.44a1.29,1.29,0,0,0-1.3-.79Z" transform="translate(-9.23 -15.52)"/><polygon class="b" points="95.65 60.53 85.4 60.53 80.27 69.41 85.4 78.28 95.65 78.28 100.77 69.41 95.65 60.53"/></svg>